<?xml version="1.0" standalone="no"?><svg xmlns="http://www.w3.org/2000/svg" viewBox="0 0 1440 320"><path fill="#e7008a" fill-opacity="1" d="M0,192L18.5,176C36.9,160,74,128,111,128C147.7,128,185,160,222,176C258.5,192,295,192,332,176C369.2,160,406,128,443,106.7C480,85,517,75,554,80C590.8,85,628,107,665,133.3C701.5,160,738,192,775,202.7C812.3,213,849,203,886,192C923.1,181,960,171,997,160C1033.8,149,1071,139,1108,149.3C1144.6,160,1182,192,1218,197.3C1255.4,203,1292,181,1329,181.3C1366.2,181,1403,203,1422,213.3L1440,224L1440,320L1421.5,320C1403.1,320,1366,320,1329,320C1292.3,320,1255,320,1218,320C1181.5,320,1145,320,1108,320C1070.8,320,1034,320,997,320C960,320,923,320,886,320C849.2,320,812,320,775,320C738.5,320,702,320,665,320C627.7,320,591,320,554,320C516.9,320,480,320,443,320C406.2,320,369,320,332,320C295.4,320,258,320,222,320C184.6,320,148,320,111,320C73.8,320,37,320,18,320L0,320Z"></path></svg>